<mxfile host="app.diagrams.net" modified="2024-06-03T15:40:47.852Z" agent="Mozilla/5.0 (Windows NT 10.0; Win64; x64) AppleWebKit/537.36 (KHTML, like Gecko) Chrome/125.0.0.0 Safari/537.36" version="24.4.13" etag="g7F_tilDKL-_PbHdPKA9" type="github">
  <diagram name="Страница — 1" id="8r67EnUMdq6MARJjfRaZ">
    <mxGraphModel>
      <root>
        <mxCell id="0" />
        <mxCell id="1" parent="0" />
      </root>
    </mxGraphModel>
  </diagram>
</mxfile>
